# xmcd CD database file
#
# Track frame offsets:
#	150
#	16862
#	46653
#	53360
#	82114
#	126906
#	161335
#
# Disc length: 2615 seconds
#
# Revision: 0
# Processed by: cddbd v1.5.2PL0 Copyright (c) Steve Scherf et al.
# Submitted via: CDex 1.51
#
DISCID=460a3507
DTITLE=Apostle of Solitude - From Gold To Ash
DYEAR=2018
DGENRE=Doom Metal
TTITLE0=Overlord
TTITLE1=Ruination Be Thy Name
TTITLE2=Autumn Moon
TTITLE3=Keeping The Lighthouse
TTITLE4=My Heart is Leaving Here
TTITLE5=Monochrome (discontent)
TTITLE6=Grey Farewell
EXTD=YEAR: 2018
EXTT0=
EXTT1=
EXTT2=
EXTT3=
EXTT4=
EXTT5=
EXTT6=
PLAYORDER=
